<svg width="256" height="290" viewBox="0 0 256 290" fill="none" xmlns="http://www.w3.org/2000/svg">
<path d="M127.399 289.322L23.2165 260.401L0 0H255.11L231.868 260.36L127.399 289.322Z" fill="#264DE4"/>
<path d="M211.972 243.781L231.833 21.2915H127.555V267.184L211.972 243.781Z" fill="#2965F1"/>
<path d="M53.2234 117.87L56.0858 149.807H127.555V117.87H53.2234Z" fill="#EBEBEB"/>
<path d="M47.4718 53.229L50.375 85.1664H127.555V53.229H47.4718Z" fill="#EBEBEB"/>
<path d="M127.555 200.814L127.415 200.852L91.8464 191.247L89.5726 165.776H57.5128L61.9872 215.922L127.408 234.083L127.555 234.042V200.814Z" fill="#EBEBEB"/>
<path d="M201.682 117.87L207.447 53.229H127.444V85.1664H172.447L169.541 117.87H127.444V149.807H166.771L163.064 191.227L127.444 200.841V234.068L192.917 215.922L193.397 210.526L200.902 126.446L201.682 117.87Z" fill="white"/>
</svg>
