<svg width="14" height="20" viewBox="0 0 14 20" fill="none" xmlns="http://www.w3.org/2000/svg">
<g clip-path="url(#clip0_163_384)">
<path d="M7 9.99996C7 9.1159 7.35119 8.26806 7.97631 7.64294C8.60143 7.01782 9.44928 6.66663 10.3333 6.66663C11.2174 6.66663 12.0652 7.01782 12.6904 7.64294C13.3155 8.26806 13.6667 9.1159 13.6667 9.99996C13.6667 10.884 13.3155 11.7319 12.6904 12.357C12.0652 12.9821 11.2174 13.3333 10.3333 13.3333C9.44928 13.3333 8.60143 12.9821 7.97631 12.357C7.35119 11.7319 7 10.884 7 9.99996Z" fill="#1ABCFE"/>
<path d="M0.333496 16.6667C0.333496 15.7827 0.684686 14.9348 1.30981 14.3097C1.93493 13.6846 2.78277 13.3334 3.66683 13.3334H7.00016V16.6667C7.00016 17.5508 6.64897 18.3986 6.02385 19.0237C5.39873 19.6489 4.55088 20 3.66683 20C2.78277 20 1.93493 19.6489 1.30981 19.0237C0.684686 18.3986 0.333496 17.5508 0.333496 16.6667H0.333496Z" fill="#0ACF83"/>
<path d="M7 0V6.66667H10.3333C11.2174 6.66667 12.0652 6.31548 12.6904 5.69036C13.3155 5.06523 13.6667 4.21739 13.6667 3.33333C13.6667 2.44928 13.3155 1.60143 12.6904 0.976311C12.0652 0.351189 11.2174 0 10.3333 0L7 0Z" fill="#FF7262"/>
<path d="M0.333496 3.33333C0.333496 4.21739 0.684686 5.06523 1.30981 5.69036C1.93493 6.31548 2.78277 6.66667 3.66683 6.66667H7.00016V0H3.66683C2.78277 0 1.93493 0.351189 1.30981 0.976311C0.684686 1.60143 0.333496 2.44928 0.333496 3.33333H0.333496Z" fill="#F24E1E"/>
<path d="M0.333496 9.99996C0.333496 10.884 0.684686 11.7319 1.30981 12.357C1.93493 12.9821 2.78277 13.3333 3.66683 13.3333H7.00016V6.66663H3.66683C2.78277 6.66663 1.93493 7.01782 1.30981 7.64294C0.684686 8.26806 0.333496 9.1159 0.333496 9.99996H0.333496Z" fill="#A259FF"/>
</g>
<defs>
<clipPath id="clip0_163_384">
<rect width="13.3333" height="20" fill="white" transform="translate(0.333496)"/>
</clipPath>
</defs>
</svg>
