<svg width="79" height="103" viewBox="0 0 79 103" fill="none" xmlns="http://www.w3.org/2000/svg">
<path d="M8.26752 13.199C8.26752 26.978 16.825 35.2454 33.94 39.5967L52.0704 43.8029C68.3151 47.574 78.178 56.8568 78.178 71.9412C78.323 78.4681 76.1474 84.85 72.2313 90.0715C72.2313 74.9871 64.399 66.8647 45.6885 61.9333L27.8483 57.8721C13.489 54.6811 2.46582 46.9939 2.46582 30.6041C2.46582 24.3672 4.49642 18.1304 8.26752 13.199Z" fill="#F04939"/>
<path d="M61.0629 68.17C68.7501 73.1014 72.2312 80.0635 72.2312 90.0714C65.7043 98.3388 54.536 102.835 41.3371 102.835C19.1456 102.835 3.33598 91.8119 0 72.8113H21.3212C24.0771 81.5139 31.3292 85.5751 41.1921 85.5751C52.9405 85.7201 60.9178 79.3382 61.0629 68.17ZM8.26742 13.0538C14.5043 4.93145 25.2374 0 38.2912 0C61.0629 0 74.1167 12.0385 77.4527 28.8635H56.8567C54.536 22.1915 48.8793 16.97 38.5813 16.97C27.413 17.115 19.8708 23.4969 19.4357 33.6499C11.9617 29.528 7.97734 21.4663 8.26742 13.0538Z" fill="#F37368"/>
</svg>
