<svg width="22" height="22" viewBox="0 0 22 22" fill="none" xmlns="http://www.w3.org/2000/svg">
<rect x="1" y="1" width="20" height="20" fill="white"/>
<path fill-rule="evenodd" clip-rule="evenodd" d="M0 0H22V22H0V0ZM10.1196 8.18908C10.1196 7.58623 10.6143 7.35436 11.4336 7.35436C12.6084 7.35436 14.0923 7.70989 15.2671 8.34366V4.71106C13.9841 4.20095 12.7166 4 11.4336 4C8.2956 4 6.20879 5.63853 6.20879 8.37458C6.20879 12.641 12.0828 11.9608 12.0828 13.8003C12.0828 14.5114 11.4645 14.7432 10.5988 14.7432C9.31582 14.7432 7.67729 14.2177 6.37883 13.5066V17.1856C7.81641 17.8039 9.26945 18.0667 10.5988 18.0667C13.8141 18.0667 16.0245 16.4745 16.0245 13.7075C16.0091 9.1011 10.1196 9.92037 10.1196 8.18908Z" fill="#6772E5"/>
</svg>
