<svg width="758" height="145" viewBox="0 0 758 145" fill="none" xmlns="http://www.w3.org/2000/svg">
<rect width="128.564" height="144.127" rx="27.0661" fill="white"/>
<path d="M0 72.4019H126.872V118.753C126.872 132.767 115.512 144.127 101.498 144.127H25.3745C11.3605 144.127 0 132.767 0 118.753V72.4019Z" fill="#EC6B2D"/>
<line x1="56.8389" y1="60.2221" x2="69.6953" y2="60.2221" stroke="black" stroke-width="5.41323"/>
<path d="M0 25.3745C0 11.3605 11.3606 0 25.3745 0H103.19C117.204 0 128.564 11.3605 128.564 25.3745V49.3957H0V25.3745Z" fill="black"/>
<path d="M38.9075 38.5691C38.9075 31.095 44.9664 25.0361 52.4405 25.0361H74.4318C81.9059 25.0361 87.9648 31.095 87.9648 38.5691V42.6291H38.9075V38.5691Z" fill="white"/>
<circle cx="38.9075" cy="62.9286" r="18.608" fill="white" stroke="black" stroke-width="3.38327"/>
<circle cx="87.9649" cy="62.9286" r="18.608" fill="white" stroke="black" stroke-width="3.38327"/>
<path d="M102.077 125.067C117.574 113.249 126.872 72.0635 126.872 72.0635V122.286C126.872 129.237 118.39 138.39 110.125 142.097H44.9973C44.9973 142.097 86.5805 136.884 102.077 125.067Z" fill="#EC6B2D" stroke="#EC6B2D" stroke-width="0.338327"/>
<path d="M102.077 125.067C117.574 113.249 126.872 72.0635 126.872 72.0635V122.286C126.872 129.237 118.39 138.39 110.125 142.097H44.9973C44.9973 142.097 86.5805 136.884 102.077 125.067Z" fill="#0C1210" fill-opacity="0.2" stroke="#EC6B2D" stroke-width="0.338327"/>
<path d="M1.69141 17.2545V48.3801C12.4042 21.7356 20.9191 10.569 41.9523 0.338196C15.732 0.338155 5.87684 9.71549 1.69141 17.2545Z" fill="#393737" stroke="#0E0E0E" stroke-width="0.338327"/>
<path d="M25.3745 1.69163H103.19C116.269 1.69163 126.872 12.2948 126.872 25.3745V118.753C126.872 131.832 116.269 142.436 103.19 142.436H25.3745C12.2948 142.436 1.69163 131.832 1.69163 118.753V25.3745C1.69163 12.2948 12.2948 1.69163 25.3745 1.69163Z" stroke="black" stroke-width="3.38327"/>
<path d="M25.863 61.7257C26.0886 58.7372 28.0283 52.3879 33.9829 50.8993" stroke="black" stroke-opacity="0.1" stroke-width="3.38327" stroke-linecap="round"/>
<path d="M75.259 61.7257C75.4846 58.7372 77.4243 52.3879 83.3789 50.8993" stroke="black" stroke-opacity="0.1" stroke-width="3.38327" stroke-linecap="round"/>
<path d="M207.035 10.6249V64.0636H194.018V32.0156L182.067 64.0636H171.562L159.534 31.9395V64.0636H146.517V10.6249H161.894L176.89 47.6209L191.734 10.6249H207.035ZM229.413 10.6249V64.0636H216.396V10.6249H229.413ZM236.639 37.2681C236.639 31.9902 237.781 27.296 240.064 23.1853C242.348 19.0239 245.52 15.8013 249.58 13.5176C253.691 11.1831 258.334 10.0159 263.51 10.0159C269.854 10.0159 275.284 11.6906 279.801 15.0401C284.318 18.3895 287.337 22.9569 288.86 28.7423H274.548C273.483 26.5093 271.96 24.8093 269.981 23.642C268.053 22.4748 265.845 21.8912 263.358 21.8912C259.349 21.8912 256.101 23.2868 253.614 26.078C251.128 28.8692 249.884 32.5992 249.884 37.2681C249.884 41.937 251.128 45.6671 253.614 48.4583C256.101 51.2495 259.349 52.6451 263.358 52.6451C265.845 52.6451 268.053 52.0615 269.981 50.8942C271.96 49.727 273.483 48.0269 274.548 45.794H288.86C287.337 51.5793 284.318 56.1468 279.801 59.4962C275.284 62.7949 269.854 64.4442 263.51 64.4442C258.334 64.4442 253.691 63.3024 249.58 61.0187C245.52 58.6842 242.348 55.4616 240.064 51.351C237.781 47.2403 236.639 42.546 236.639 37.2681ZM343.114 10.6249V64.0636H330.097V42.0639H309.848V64.0636H296.831V10.6249H309.848V31.5589H330.097V10.6249H343.114ZM385.777 54.6243H365.833L362.636 64.0636H349.01L368.345 10.6249H383.417L402.753 64.0636H388.974L385.777 54.6243ZM382.428 44.576L375.805 25.0122L369.259 44.576H382.428ZM421.655 21.0538V31.8634H439.087V41.9117H421.655V53.6347H441.371V64.0636H408.638V10.6249H441.371V21.0538H421.655ZM462.839 54.0153H479.89V64.0636H449.822V10.6249H462.839V54.0153Z" fill="white"/>
<path d="M220.052 79.6249L206.122 133.064H190.364L181.838 97.8945L173.008 133.064H157.25L143.7 79.6249H157.631L165.32 118.524L174.835 79.6249H189.146L198.281 118.524L206.046 79.6249H220.052ZM239.598 90.0538V100.863H257.03V110.912H239.598V122.635H259.314V133.064H226.58V79.6249H259.314V90.0538H239.598ZM300.117 105.659C303.213 106.319 305.699 107.867 307.577 110.303C309.455 112.688 310.394 115.428 310.394 118.524C310.394 122.99 308.82 126.542 305.674 129.181C302.578 131.769 298.239 133.064 292.657 133.064H267.764V79.6249H291.82C297.25 79.6249 301.487 80.8683 304.532 83.355C307.628 85.8417 309.176 89.2165 309.176 93.4794C309.176 96.6258 308.338 99.2394 306.664 101.32C305.04 103.401 302.857 104.847 300.117 105.659ZM280.782 101.244H289.307C291.439 101.244 293.063 100.787 294.179 99.8738C295.347 98.9095 295.93 97.5139 295.93 95.687C295.93 93.86 295.347 92.4644 294.179 91.5002C293.063 90.5359 291.439 90.0538 289.307 90.0538H280.782V101.244ZM290.373 122.559C292.555 122.559 294.23 122.076 295.397 121.112C296.615 120.097 297.224 118.651 297.224 116.773C297.224 114.895 296.59 113.424 295.321 112.358C294.103 111.292 292.403 110.759 290.221 110.759H280.782V122.559H290.373ZM353.411 133.596C349.503 133.596 346.001 132.962 342.906 131.693C339.81 130.425 337.323 128.547 335.445 126.06C333.618 123.574 332.654 120.579 332.553 117.078H346.407C346.61 119.057 347.295 120.579 348.463 121.645C349.63 122.66 351.152 123.168 353.03 123.168C354.958 123.168 356.481 122.736 357.597 121.873C358.714 120.96 359.272 119.717 359.272 118.143C359.272 116.824 358.815 115.733 357.902 114.87C357.039 114.007 355.948 113.297 354.629 112.739C353.36 112.18 351.533 111.546 349.148 110.836C345.697 109.77 342.88 108.704 340.698 107.638C338.516 106.573 336.638 104.999 335.065 102.919C333.492 100.838 332.705 98.1229 332.705 94.7735C332.705 89.8001 334.507 85.9178 338.11 83.1266C341.713 80.2846 346.407 78.8637 352.193 78.8637C358.079 78.8637 362.824 80.2846 366.428 83.1266C370.031 85.9178 371.959 89.8255 372.213 94.8496H358.13C358.029 93.1241 357.394 91.7793 356.227 90.8151C355.06 89.8001 353.563 89.2926 351.736 89.2926C350.163 89.2926 348.894 89.724 347.93 90.5867C346.965 91.3987 346.483 92.5913 346.483 94.1645C346.483 95.89 347.295 97.2348 348.919 98.199C350.543 99.1633 353.081 100.204 356.532 101.32C359.983 102.487 362.774 103.604 364.905 104.67C367.087 105.735 368.965 107.283 370.538 109.313C372.112 111.343 372.898 113.957 372.898 117.154C372.898 120.199 372.112 122.965 370.538 125.451C369.016 127.938 366.783 129.917 363.839 131.389C360.896 132.861 357.42 133.596 353.411 133.596ZM406.182 133.596C401.158 133.596 396.54 132.429 392.327 130.095C388.166 127.76 384.842 124.512 382.355 120.351C379.919 116.139 378.701 111.419 378.701 106.192C378.701 100.965 379.919 96.2706 382.355 92.1092C384.842 87.9477 388.166 84.6998 392.327 82.3654C396.54 80.0309 401.158 78.8637 406.182 78.8637C411.206 78.8637 415.799 80.0309 419.96 82.3654C424.172 84.6998 427.471 87.9477 429.856 92.1092C432.292 96.2706 433.51 100.965 433.51 106.192C433.51 111.419 432.292 116.139 429.856 120.351C427.42 124.512 424.122 127.76 419.96 130.095C415.799 132.429 411.206 133.596 406.182 133.596ZM406.182 121.721C410.445 121.721 413.845 120.3 416.383 117.458C418.971 114.616 420.265 110.861 420.265 106.192C420.265 101.472 418.971 97.7169 416.383 94.9257C413.845 92.0838 410.445 90.6628 406.182 90.6628C401.868 90.6628 398.417 92.0584 395.829 94.8496C393.292 97.6408 392.023 101.422 392.023 106.192C392.023 110.912 393.292 114.692 395.829 117.534C398.417 120.326 401.868 121.721 406.182 121.721ZM453.769 123.015H470.821V133.064H440.752V79.6249H453.769V123.015ZM489.818 79.6249V111.597C489.818 114.794 490.605 117.255 492.178 118.981C493.752 120.706 496.061 121.569 499.106 121.569C502.15 121.569 504.485 120.706 506.109 118.981C507.733 117.255 508.545 114.794 508.545 111.597V79.6249H521.562V111.521C521.562 116.291 520.547 120.326 518.517 123.624C516.487 126.923 513.747 129.41 510.296 131.084C506.896 132.759 503.089 133.596 498.877 133.596C494.665 133.596 490.884 132.784 487.535 131.161C484.236 129.486 481.623 126.999 479.694 123.7C477.766 120.351 476.801 116.291 476.801 111.521V79.6249H489.818ZM569.145 79.6249V90.0538H554.986V133.064H541.969V90.0538H527.81V79.6249H569.145ZM588.695 79.6249V133.064H575.678V79.6249H588.695ZM623.402 133.596C618.377 133.596 613.759 132.429 609.547 130.095C605.386 127.76 602.062 124.512 599.575 120.351C597.139 116.139 595.921 111.419 595.921 106.192C595.921 100.965 597.139 96.2706 599.575 92.1092C602.062 87.9477 605.386 84.6998 609.547 82.3654C613.759 80.0309 618.377 78.8637 623.402 78.8637C628.426 78.8637 633.018 80.0309 637.18 82.3654C641.392 84.6998 644.691 87.9477 647.076 92.1092C649.512 96.2706 650.73 100.965 650.73 106.192C650.73 111.419 649.512 116.139 647.076 120.351C644.64 124.512 641.341 127.76 637.18 130.095C633.018 132.429 628.426 133.596 623.402 133.596ZM623.402 121.721C627.664 121.721 631.065 120.3 633.602 117.458C636.19 114.616 637.484 110.861 637.484 106.192C637.484 101.472 636.19 97.7169 633.602 94.9257C631.065 92.0838 627.664 90.6628 623.402 90.6628C619.088 90.6628 615.637 92.0584 613.049 94.8496C610.511 97.6408 609.243 101.422 609.243 106.192C609.243 110.912 610.511 114.692 613.049 117.534C615.637 120.326 619.088 121.721 623.402 121.721ZM705.777 133.064H692.76L670.989 100.102V133.064H657.972V79.6249H670.989L692.76 112.739V79.6249H705.777V133.064ZM734.548 133.596C730.641 133.596 727.139 132.962 724.043 131.693C720.948 130.425 718.461 128.547 716.583 126.06C714.756 123.574 713.792 120.579 713.691 117.078H727.545C727.748 119.057 728.433 120.579 729.6 121.645C730.768 122.66 732.29 123.168 734.168 123.168C736.096 123.168 737.619 122.736 738.735 121.873C739.852 120.96 740.41 119.717 740.41 118.143C740.41 116.824 739.953 115.733 739.04 114.87C738.177 114.007 737.086 113.297 735.766 112.739C734.498 112.18 732.671 111.546 730.285 110.836C726.835 109.77 724.018 108.704 721.836 107.638C719.654 106.573 717.776 104.999 716.203 102.919C714.629 100.838 713.843 98.1229 713.843 94.7735C713.843 89.8001 715.644 85.9178 719.248 83.1266C722.851 80.2846 727.545 78.8637 733.33 78.8637C739.217 78.8637 743.962 80.2846 747.565 83.1266C751.169 85.9178 753.097 89.8255 753.351 94.8496H739.268C739.167 93.1241 738.532 91.7793 737.365 90.8151C736.198 89.8001 734.701 89.2926 732.874 89.2926C731.3 89.2926 730.032 89.724 729.067 90.5867C728.103 91.3987 727.621 92.5913 727.621 94.1645C727.621 95.89 728.433 97.2348 730.057 98.199C731.681 99.1633 734.219 100.204 737.669 101.32C741.12 102.487 743.912 103.604 746.043 104.67C748.225 105.735 750.103 107.283 751.676 109.313C753.249 111.343 754.036 113.957 754.036 117.154C754.036 120.199 753.249 122.965 751.676 125.451C750.154 127.938 747.921 129.917 744.977 131.389C742.034 132.861 738.558 133.596 734.548 133.596Z" fill="#EC6B2D"/>
</svg>
