<svg width="67" height="27" viewBox="0 0 67 27" fill="none" xmlns="http://www.w3.org/2000/svg">
<path d="M18.072 0.727999V17.936C18.072 20.6 17.316 22.652 15.804 24.092C14.316 25.532 12.3 26.252 9.756 26.252C7.092 26.252 4.956 25.496 3.348 23.984C1.74 22.472 0.936 20.324 0.936 17.54H7.056C7.056 18.596 7.272 19.4 7.704 19.952C8.136 20.48 8.76 20.744 9.576 20.744C10.32 20.744 10.896 20.504 11.304 20.024C11.712 19.544 11.916 18.848 11.916 17.936V0.727999H18.072ZM32.6565 26L24.1605 14.84V26H18.0045V0.727999H24.1605V11.816L32.5845 0.727999H39.8205L30.0285 13.112L40.1805 26H32.6565ZM66.6861 0.727999V26H60.5301V10.844L54.8781 26H49.9101L44.2221 10.808V26H38.0661V0.727999H45.3381L52.4301 18.224L59.4501 0.727999H66.6861Z" fill="url(#paint0_linear_183_98)"/>
<defs>
<linearGradient id="paint0_linear_183_98" x1="20.75" y1="0.499998" x2="62.8692" y2="21.1848" gradientUnits="userSpaceOnUse">
<stop stop-color="#EC6B2D"/>
<stop offset="1" stop-color="#4BD092"/>
</linearGradient>
</defs>
</svg>
