<svg width="23" height="20" viewBox="0 0 23 20" fill="none" xmlns="http://www.w3.org/2000/svg">
<path d="M18.7616 6.48124C18.5199 6.40089 18.2781 6.325 18.0364 6.25357C18.0767 6.0884 18.1125 5.92323 18.1483 5.75806C18.699 3.09749 18.3363 0.959212 17.1142 0.253892C15.9368 -0.420179 14.0162 0.280677 12.0733 1.96809C11.8808 2.13326 11.6927 2.30735 11.5137 2.48145C11.3928 2.36539 11.2674 2.24932 11.1421 2.13772C9.10512 0.334245 7.06369 -0.424643 5.84152 0.285141C4.66859 0.963676 4.3194 2.97696 4.81185 5.49468C4.86109 5.74467 4.91481 5.99019 4.97749 6.24018C4.69097 6.32053 4.40893 6.40981 4.1448 6.50356C1.75417 7.32941 0.0395508 8.63291 0.0395508 9.98105C0.0395508 11.3738 1.8661 12.7711 4.35073 13.6193C4.55219 13.6862 4.75365 13.7532 4.95958 13.8112C4.89243 14.079 4.83423 14.3424 4.78051 14.6147C4.31044 17.0923 4.67754 19.0565 5.85047 19.7305C7.05921 20.4269 9.09169 19.7127 11.0704 17.9851C11.2271 17.8467 11.3838 17.7039 11.5405 17.5521C11.7375 17.744 11.9434 17.9271 12.1494 18.1056C14.0654 19.7484 15.9591 20.4135 17.1276 19.7395C18.3363 19.0431 18.7303 16.9316 18.2199 14.3603C18.1796 14.1639 18.1349 13.963 18.0856 13.7576C18.2289 13.7175 18.3677 13.6728 18.5065 13.6282C21.0896 12.7755 22.9609 11.3962 22.9609 9.98105C22.9609 8.62845 21.197 7.31602 18.7616 6.48124ZM12.7045 2.69126C14.3699 1.24491 15.9233 0.677977 16.6307 1.08421C17.3872 1.51722 17.6782 3.26712 17.2037 5.56611C17.1724 5.71789 17.141 5.8652 17.1007 6.01251C16.1069 5.78931 15.0996 5.62861 14.0878 5.53932C13.5058 4.70901 12.8701 3.91441 12.1807 3.16892C12.3553 3.00375 12.5254 2.8475 12.7045 2.69126ZM7.5248 12.2979C7.75312 12.6863 7.98592 13.0746 8.23214 13.4541C7.53376 13.3782 6.83985 13.2666 6.15489 13.1193C6.35187 12.4765 6.5981 11.8113 6.88462 11.1328C7.09055 11.5256 7.30096 11.914 7.5248 12.2979ZM6.16832 6.92764C6.81299 6.78479 7.49794 6.66873 8.20976 6.57945C7.97249 6.94996 7.73969 7.32941 7.52033 7.71332C7.30096 8.09276 7.08607 8.48113 6.88462 8.87397C6.60258 8.20883 6.3653 7.55707 6.16832 6.92764ZM7.39498 10.0034C7.69045 9.38733 8.01278 8.78469 8.35302 8.19097C8.69325 7.59725 9.06035 7.02139 9.44536 6.45445C10.1169 6.40535 10.8018 6.37856 11.5002 6.37856C12.1986 6.37856 12.888 6.40535 13.5551 6.45445C13.9356 7.01692 14.2982 7.59279 14.643 8.18204C14.9877 8.77129 15.31 9.37394 15.6144 9.98552C15.3145 10.6016 14.9921 11.2087 14.6474 11.8068C14.3072 12.4006 13.9446 12.9764 13.564 13.5478C12.897 13.5969 12.2031 13.6193 11.5002 13.6193C10.7974 13.6193 10.1169 13.5969 9.45879 13.5568C9.06931 12.9898 8.70221 12.4095 8.35749 11.8158C8.01278 11.2221 7.69492 10.6194 7.39498 10.0034ZM15.4801 12.289C15.7084 11.8961 15.9233 11.4988 16.1337 11.0971C16.4203 11.7444 16.671 12.4006 16.8903 13.0746C16.1964 13.2309 15.4936 13.3514 14.7862 13.4318C15.028 13.0568 15.2563 12.6729 15.4801 12.289ZM16.1248 8.87397C15.9144 8.48113 15.6995 8.0883 15.4756 7.70439C15.2563 7.32494 15.028 6.94996 14.7907 6.57945C15.5115 6.66873 16.2009 6.78926 16.8456 6.93657C16.6396 7.59725 16.3979 8.24007 16.1248 8.87397ZM11.5092 3.85191C11.9792 4.36082 12.4225 4.8965 12.8343 5.45004C11.9479 5.40987 11.057 5.40987 10.1706 5.45004C10.6093 4.87418 11.0615 4.3385 11.5092 3.85191ZM6.31606 1.11545C7.06817 0.677977 8.73802 1.30294 10.4974 2.85643C10.6093 2.95464 10.7213 3.06178 10.8377 3.16892C10.1437 3.91441 9.50356 4.70901 8.9171 5.53932C7.90533 5.62861 6.90252 5.78485 5.90867 6.00359C5.85047 5.77592 5.80123 5.54379 5.75198 5.31166C5.33116 3.15106 5.60872 1.52168 6.31606 1.11545ZM5.21924 12.8827C5.03121 12.8291 4.84766 12.7711 4.66411 12.7086C3.71055 12.4095 2.62716 11.9363 1.84371 11.3158C1.39155 11.0033 1.08713 10.5212 1.00207 9.98105C1.00207 9.16413 2.41674 8.11954 4.45818 7.40976C4.71336 7.32048 4.97301 7.24013 5.23267 7.16424C5.53709 8.13294 5.90419 9.08378 6.32949 10.0034C5.89972 10.9364 5.52814 11.9006 5.21924 12.8827ZM10.4392 17.2574C9.70054 17.9315 8.84547 18.4672 7.91429 18.8333C7.41736 19.0699 6.84433 19.0922 6.33397 18.8913C5.62215 18.4806 5.32668 16.9048 5.7296 14.7844C5.77884 14.5344 5.83256 14.2844 5.89524 14.0389C6.89805 14.2531 7.90981 14.4005 8.935 14.4763C9.52594 15.3111 10.1751 16.1102 10.869 16.8601C10.7257 16.9985 10.5825 17.1325 10.4392 17.2574ZM11.536 16.1727C11.0794 15.6816 10.6228 15.137 10.1796 14.5522C10.6093 14.5701 11.0525 14.579 11.5002 14.579C11.9613 14.579 12.4135 14.5701 12.8612 14.5478C12.4493 15.1147 12.0061 15.6549 11.536 16.1727ZM17.3872 17.5119C17.347 18.0565 17.0783 18.5654 16.6486 18.9091C15.9368 19.3198 14.4191 18.7842 12.7806 17.3824C12.5926 17.2217 12.4045 17.0476 12.212 16.8691C12.897 16.1147 13.5282 15.3156 14.1013 14.4763C15.1265 14.3915 16.1472 14.2353 17.1545 14.0076C17.1992 14.1906 17.2395 14.3737 17.2753 14.5522C17.4947 15.5165 17.5305 16.5209 17.3872 17.5119ZM18.202 12.713C18.0767 12.7532 17.9513 12.7934 17.8215 12.8291C17.5081 11.856 17.1231 10.9051 16.6799 9.98105C17.1097 9.07039 17.4723 8.13294 17.7767 7.17317C18.0095 7.24013 18.2334 7.31155 18.4483 7.38298C20.5345 8.09722 21.9984 9.15967 21.9984 9.97212C21.9984 10.8471 20.436 11.9765 18.202 12.713ZM11.5002 12.0434C12.6329 12.0434 13.5506 11.1283 13.5506 9.99891C13.5506 8.8695 12.6329 7.95437 11.5002 7.95437C10.3676 7.95437 9.44984 8.8695 9.44984 9.99891C9.44984 11.1283 10.3676 12.0434 11.5002 12.0434Z" fill="#61DBFB"/>
</svg>
