<?xml version="1.0" standalone="no"?>
<!DOCTYPE svg PUBLIC "-//W3C//DTD SVG 20010904//EN"
 "http://www.w3.org/TR/2001/REC-SVG-20010904/DTD/svg10.dtd">
<svg version="1.0" xmlns="http://www.w3.org/2000/svg"
 width="700.000000pt" height="700.000000pt" viewBox="0 0 700.000000 700.000000"
 preserveAspectRatio="xMidYMid meet">
<metadata>
Created by potrace 1.14, written by Peter Selinger 2001-2017
</metadata>
<g transform="translate(0.000000,700.000000) scale(0.100000,-0.100000)"
fill="#000000" stroke="none">
<path d="M1200 6990 c-25 -4 -58 -10 -75 -13 -111 -19 -233 -60 -355 -120
-403 -198 -682 -576 -754 -1022 -22 -130 -21 -4531 0 -4670 42 -280 183 -554
389 -760 189 -190 409 -310 690 -378 l90 -21 2270 -3 c1347 -1 2295 2 2333 8
104 15 124 19 197 39 500 140 871 534 986 1050 l24 105 2 2270 c2 2431 4 2333
-46 2513 -105 379 -384 713 -734 876 -134 63 -210 87 -362 116 -96 18 -184 19
-2355 18 -1240 0 -2275 -4 -2300 -8z"/>
</g>
</svg>
