<svg width="380" height="426" viewBox="0 0 380 426" fill="none" xmlns="http://www.w3.org/2000/svg">
<rect width="380" height="426" rx="80" fill="white"/>
<path d="M0 214H375V351C375 392.421 341.421 426 300 426H75C33.5786 426 0 392.421 0 351V214Z" fill="#EC6B2D"/>
<line x1="171" y1="173" x2="209" y2="173" stroke="black" stroke-width="8"/>
<path d="M0 75C0 33.5786 33.5786 0 75 0H305C346.421 0 380 33.5786 380 75V146H0V75Z" fill="black"/>
<path d="M115 114C115 91.9086 132.909 74 155 74H220C242.091 74 260 91.9086 260 114V126H115V114Z" fill="white"/>
<circle cx="115" cy="186" r="56" fill="white" stroke="black" stroke-width="8"/>
<circle cx="260" cy="186" r="56" fill="white" stroke="black" stroke-width="8"/>
<path d="M301.713 369.663C347.517 334.734 375 213 375 213V361.444C375 381.99 349.929 409.042 325.5 420H133C133 420 255.909 404.591 301.713 369.663Z" fill="#EC6B2D" stroke="#EC6B2D"/>
<path d="M301.713 369.663C347.517 334.734 375 213 375 213V361.444C375 381.99 349.929 409.042 325.5 420H133C133 420 255.909 404.591 301.713 369.663Z" fill="#0C1210" fill-opacity="0.2" stroke="#EC6B2D"/>
<path d="M5.00001 51V142.999C36.6641 64.2449 61.8317 31.2395 124 1.00012C46.5 1 17.371 28.7168 5.00001 51Z" fill="#393737" stroke="#0E0E0E"/>
<path d="M75 5H305C343.66 5 375 36.3401 375 75V351C375 389.66 343.66 421 305 421H75C36.3401 421 5 389.66 5 351V75C5 36.3401 36.3401 5 75 5Z" stroke="black" stroke-width="10"/>
</svg>
